{
	"asset":{
		"generator":"Khronos glTF Blender I/O v4.2.60",
		"version":"2.0"
	},
	"scene":0,
	"scenes":[
		{
			"name":"Scene",
			"nodes":[
				0,
				1
			]
		}
	],
	"nodes":[
		{
			"mesh":0,
			"name":"Icosphere",
			"scale":[
				3.808645486831665,
				0.5311630368232727,
				1
			]
		},
		{
			"mesh":1,
			"name":"Icosphere.001",
			"scale":[
				0.8907046318054199,
				0.48541978001594543,
				0.5473049283027649
			],
			"translation":[
				-0.04177900031208992,
				0.24109035730361938,
				-13.55452823638916
			]
		}
	],
	"materials":[
		{
			"doubleSided":true,
			"name":"Material.006",
			"pbrMetallicRoughness":{
				"baseColorFactor":[
					0.800000011920929,
					0.800000011920929,
					0.800000011920929,
					1
				],
				"roughnessFactor":0
			}
		}
	],
	"meshes":[
		{
			"name":"Icosphere",
			"primitives":[
				{
					"attributes":{
						"POSITION":0,
						"NORMAL":1,
						"TEXCOORD_0":2
					},
					"indices":3,
					"material":0
				}
			]
		},
		{
			"name":"Icosphere.001",
			"primitives":[
				{
					"attributes":{
						"POSITION":4,
						"NORMAL":5,
						"TEXCOORD_0":6
					},
					"indices":7
				}
			]
		}
	],
	"accessors":[
		{
			"bufferView":0,
			"componentType":5126,
			"count":101280,
			"max":[
				0.9474769830703735,
				0.9848133325576782,
				0.9820293188095093
			],
			"min":[
				-0.9474769830703735,
				-0.9848133325576782,
				-0.982029378414154
			],
			"type":"VEC3"
		},
		{
			"bufferView":1,
			"componentType":5126,
			"count":101280,
			"type":"VEC3"
		},
		{
			"bufferView":2,
			"componentType":5126,
			"count":101280,
			"type":"VEC2"
		},
		{
			"bufferView":3,
			"componentType":5125,
			"count":161310,
			"type":"SCALAR"
		},
		{
			"bufferView":4,
			"componentType":5126,
			"count":24523,
			"max":[
				0.9474769830703735,
				0.9848133325576782,
				0.9820293188095093
			],
			"min":[
				-0.9474769830703735,
				-0.9848133325576782,
				-0.982029378414154
			],
			"type":"VEC3"
		},
		{
			"bufferView":5,
			"componentType":5126,
			"count":24523,
			"type":"VEC3"
		},
		{
			"bufferView":6,
			"componentType":5126,
			"count":24523,
			"type":"VEC2"
		},
		{
			"bufferView":7,
			"componentType":5123,
			"count":143988,
			"type":"SCALAR"
		}
	],
	"bufferViews":[
		{
			"buffer":0,
			"byteLength":1215360,
			"byteOffset":0,
			"target":34962
		},
		{
			"buffer":0,
			"byteLength":1215360,
			"byteOffset":1215360,
			"target":34962
		},
		{
			"buffer":0,
			"byteLength":810240,
			"byteOffset":2430720,
			"target":34962
		},
		{
			"buffer":0,
			"byteLength":645240,
			"byteOffset":3240960,
			"target":34963
		},
		{
			"buffer":0,
			"byteLength":294276,
			"byteOffset":3886200,
			"target":34962
		},
		{
			"buffer":0,
			"byteLength":294276,
			"byteOffset":4180476,
			"target":34962
		},
		{
			"buffer":0,
			"byteLength":196184,
			"byteOffset":4474752,
			"target":34962
		},
		{
			"buffer":0,
			"byteLength":287976,
			"byteOffset":4670936,
			"target":34963
		}
	],
	"buffers":[
		{
			"byteLength":4958912,
			"uri":"boss-1903d2093d0e2851c9c3b21c62ac919e.bin"
		}
	]
}
