{
	"asset":{
		"generator":"Khronos glTF Blender I/O v4.2.60",
		"version":"2.0"
	},
	"extensionsUsed":[
		"KHR_materials_sheen"
	],
	"scene":0,
	"scenes":[
		{
			"extras":{
				"automirror":{
					"toggle_edit":0,
					"Use_Matcap":1,
					"apply_mirror":1,
					"cut":1
				}
			},
			"name":"Scene",
			"nodes":[
				0,
				1,
				2,
				3,
				4
			]
		}
	],
	"nodes":[
		{
			"mesh":0,
			"name":"Wings",
			"rotation":[
				0,
				0,
				-1,
				0
			],
			"scale":[
				-0.4455045759677887,
				-0.12274783849716187,
				-0.6262343525886536
			],
			"translation":[
				0,
				0.002823004499077797,
				-0.7234839200973511
			]
		},
		{
			"mesh":1,
			"name":"Body",
			"rotation":[
				0,
				1,
				0,
				7.549789415861596e-08
			],
			"scale":[
				0.4189278483390808,
				0.2708987593650818,
				1.1548643112182617
			],
			"translation":[
				0,
				-0.03786446899175644,
				-0.7339839935302734
			]
		},
		{
			"mesh":2,
			"name":"Engine",
			"rotation":[
				0,
				1,
				0,
				7.549790836947068e-08
			],
			"scale":[
				0.5557013154029846,
				0.2137385755777359,
				1.076142430305481
			],
			"translation":[
				0,
				-0.02270536497235298,
				-0.7719137668609619
			]
		},
		{
			"mesh":3,
			"name":"Jets",
			"rotation":[
				0,
				0.7071068286895752,
				-0.7071068286895752,
				5.338509012631221e-08
			],
			"scale":[
				0.17761120200157166,
				0.7135522961616516,
				0.22028817236423492
			],
			"translation":[
				0,
				-0.03824080526828766,
				1.497426986694336
			]
		},
		{
			"mesh":4,
			"name":"Weapon",
			"rotation":[
				0,
				0.7071068286895752,
				0.7071068286895752,
				5.338509012631221e-08
			],
			"scale":[
				0.03942084312438965,
				0.6796295046806335,
				0.04893326386809349
			],
			"translation":[
				0,
				-0.03624536842107773,
				-2.0128250122070312
			]
		}
	],
	"materials":[
		{
			"doubleSided":true,
			"extensions":{
				"KHR_materials_sheen":{
					"sheenColorFactor":[
						0.0,
						1.0,
						0.022633593529462814
					],
					"sheenRoughnessFactor":0.727979302406311
				}
			},
			"name":"Material.002",
			"pbrMetallicRoughness":{
				"baseColorTexture":{
					"index":0
				},
				"roughnessFactor":0.6930757761001587
			}
		}
	],
	"meshes":[
		{
			"name":"Cube.001",
			"primitives":[
				{
					"attributes":{
						"POSITION":0,
						"NORMAL":1,
						"TEXCOORD_0":2,
						"TANGENT":3
					},
					"indices":4,
					"material":0
				}
			]
		},
		{
			"name":"Cube.005",
			"primitives":[
				{
					"attributes":{
						"POSITION":5,
						"NORMAL":6,
						"TEXCOORD_0":7,
						"TANGENT":8
					},
					"indices":9,
					"material":0
				}
			]
		},
		{
			"name":"Cube.006",
			"primitives":[
				{
					"attributes":{
						"POSITION":10,
						"NORMAL":11,
						"TEXCOORD_0":12,
						"TANGENT":13
					},
					"indices":14,
					"material":0
				}
			]
		},
		{
			"name":"Cylinder",
			"primitives":[
				{
					"attributes":{
						"POSITION":15,
						"NORMAL":16,
						"TEXCOORD_0":17
					},
					"indices":18,
					"material":0
				}
			]
		},
		{
			"name":"Cylinder.001",
			"primitives":[
				{
					"attributes":{
						"POSITION":19,
						"NORMAL":20,
						"TEXCOORD_0":21
					},
					"indices":22,
					"material":0
				}
			]
		}
	],
	"textures":[
		{
			"sampler":0,
			"source":0
		}
	],
	"images":[
		{
			"mimeType":"image/png",
			"name":"Retrowave Sunset Color Palette - color-hex.com.png",
			"uri":"../../WorkingFolder/Retrowave%20Sunset%20Color%20Palette%20-%20color-hex.com.png"
		}
	],
	"accessors":[
		{
			"bufferView":0,
			"componentType":5126,
			"count":128,
			"max":[
				4.590189456939697,
				1.5719748735427856,
				1
			],
			"min":[
				-4.590189456939697,
				-1.5005683898925781,
				-1
			],
			"type":"VEC3"
		},
		{
			"bufferView":1,
			"componentType":5126,
			"count":128,
			"type":"VEC3"
		},
		{
			"bufferView":2,
			"componentType":5126,
			"count":128,
			"type":"VEC2"
		},
		{
			"bufferView":3,
			"componentType":5126,
			"count":128,
			"type":"VEC4"
		},
		{
			"bufferView":4,
			"componentType":5123,
			"count":204,
			"type":"SCALAR"
		},
		{
			"bufferView":5,
			"componentType":5126,
			"count":156,
			"max":[
				1.829498052597046,
				1,
				1
			],
			"min":[
				-1.829498052597046,
				-1,
				-1
			],
			"type":"VEC3"
		},
		{
			"bufferView":6,
			"componentType":5126,
			"count":156,
			"type":"VEC3"
		},
		{
			"bufferView":7,
			"componentType":5126,
			"count":156,
			"type":"VEC2"
		},
		{
			"bufferView":8,
			"componentType":5126,
			"count":156,
			"type":"VEC4"
		},
		{
			"bufferView":9,
			"componentType":5123,
			"count":504,
			"type":"SCALAR"
		},
		{
			"bufferView":10,
			"componentType":5126,
			"count":539,
			"max":[
				1,
				1,
				1.6302235126495361
			],
			"min":[
				-1,
				-1,
				-1.6302247047424316
			],
			"type":"VEC3"
		},
		{
			"bufferView":11,
			"componentType":5126,
			"count":539,
			"type":"VEC3"
		},
		{
			"bufferView":12,
			"componentType":5126,
			"count":539,
			"type":"VEC2"
		},
		{
			"bufferView":13,
			"componentType":5126,
			"count":539,
			"type":"VEC4"
		},
		{
			"bufferView":14,
			"componentType":5123,
			"count":1020,
			"type":"SCALAR"
		},
		{
			"bufferView":15,
			"componentType":5126,
			"count":1024,
			"max":[
				2.577648401260376,
				1.7342548370361328,
				1.0000001192092896
			],
			"min":[
				-2.577648401260376,
				-0.2657451629638672,
				-0.9999998807907104
			],
			"type":"VEC3"
		},
		{
			"bufferView":16,
			"componentType":5126,
			"count":1024,
			"type":"VEC3"
		},
		{
			"bufferView":17,
			"componentType":5126,
			"count":1024,
			"type":"VEC2"
		},
		{
			"bufferView":18,
			"componentType":5123,
			"count":2280,
			"type":"SCALAR"
		},
		{
			"bufferView":19,
			"componentType":5126,
			"count":3712,
			"max":[
				8.40811824798584,
				1,
				1.418468713760376
			],
			"min":[
				-8.40811824798584,
				-1.2581101655960083,
				-1.1815314292907715
			],
			"type":"VEC3"
		},
		{
			"bufferView":20,
			"componentType":5126,
			"count":3712,
			"type":"VEC3"
		},
		{
			"bufferView":21,
			"componentType":5126,
			"count":3712,
			"type":"VEC2"
		},
		{
			"bufferView":22,
			"componentType":5123,
			"count":8424,
			"type":"SCALAR"
		}
	],
	"bufferViews":[
		{
			"buffer":0,
			"byteLength":1536,
			"byteOffset":0,
			"target":34962
		},
		{
			"buffer":0,
			"byteLength":1536,
			"byteOffset":1536,
			"target":34962
		},
		{
			"buffer":0,
			"byteLength":1024,
			"byteOffset":3072,
			"target":34962
		},
		{
			"buffer":0,
			"byteLength":2048,
			"byteOffset":4096,
			"target":34962
		},
		{
			"buffer":0,
			"byteLength":408,
			"byteOffset":6144,
			"target":34963
		},
		{
			"buffer":0,
			"byteLength":1872,
			"byteOffset":6552,
			"target":34962
		},
		{
			"buffer":0,
			"byteLength":1872,
			"byteOffset":8424,
			"target":34962
		},
		{
			"buffer":0,
			"byteLength":1248,
			"byteOffset":10296,
			"target":34962
		},
		{
			"buffer":0,
			"byteLength":2496,
			"byteOffset":11544,
			"target":34962
		},
		{
			"buffer":0,
			"byteLength":1008,
			"byteOffset":14040,
			"target":34963
		},
		{
			"buffer":0,
			"byteLength":6468,
			"byteOffset":15048,
			"target":34962
		},
		{
			"buffer":0,
			"byteLength":6468,
			"byteOffset":21516,
			"target":34962
		},
		{
			"buffer":0,
			"byteLength":4312,
			"byteOffset":27984,
			"target":34962
		},
		{
			"buffer":0,
			"byteLength":8624,
			"byteOffset":32296,
			"target":34962
		},
		{
			"buffer":0,
			"byteLength":2040,
			"byteOffset":40920,
			"target":34963
		},
		{
			"buffer":0,
			"byteLength":12288,
			"byteOffset":42960,
			"target":34962
		},
		{
			"buffer":0,
			"byteLength":12288,
			"byteOffset":55248,
			"target":34962
		},
		{
			"buffer":0,
			"byteLength":8192,
			"byteOffset":67536,
			"target":34962
		},
		{
			"buffer":0,
			"byteLength":4560,
			"byteOffset":75728,
			"target":34963
		},
		{
			"buffer":0,
			"byteLength":44544,
			"byteOffset":80288,
			"target":34962
		},
		{
			"buffer":0,
			"byteLength":44544,
			"byteOffset":124832,
			"target":34962
		},
		{
			"buffer":0,
			"byteLength":29696,
			"byteOffset":169376,
			"target":34962
		},
		{
			"buffer":0,
			"byteLength":16848,
			"byteOffset":199072,
			"target":34963
		}
	],
	"samplers":[
		{
			"magFilter":9729,
			"minFilter":9987
		}
	],
	"buffers":[
		{
			"byteLength":215920,
			"uri":"shipdraft1-512c28db2e2b32aa512c2ea93656cac9.bin"
		}
	]
}
